<svg xmlns="http://www.w3.org/2000/svg" xmlns:xlink="http://www.w3.org/1999/xlink" width="724" zoomAndPan="magnify" viewBox="0 0 543 543.000006" height="724" preserveAspectRatio="xMidYMid meet" version="1.0"><defs><clipPath id="d9210e17a0"><path d="M 0.5 0 L 542.5 0 L 542.5 542 L 0.5 542 Z M 0.5 0 " clip-rule="nonzero"/></clipPath><clipPath id="fb5df1c274"><path d="M 95 29 L 514 29 L 514 519 L 95 519 Z M 95 29 " clip-rule="nonzero"/></clipPath><clipPath id="1cc05fd331"><path d="M 110.039062 -7.898438 L 514.039062 29.800781 L 465.488281 550.078125 L 61.492188 512.378906 Z M 110.039062 -7.898438 " clip-rule="nonzero"/></clipPath><clipPath id="e0d5f8f654"><path d="M 110.039062 -7.898438 L 514.039062 29.800781 L 465.488281 550.078125 L 61.492188 512.378906 Z M 110.039062 -7.898438 " clip-rule="nonzero"/></clipPath><clipPath id="e57b93542b"><path d="M 110.039062 -7.898438 L 514.039062 29.800781 L 465.488281 550.078125 L 61.492188 512.378906 Z M 110.039062 -7.898438 " clip-rule="nonzero"/></clipPath><clipPath id="2124f0b820"><path d="M 487 54 L 493 54 L 493 60 L 487 60 Z M 487 54 " clip-rule="nonzero"/></clipPath><clipPath id="470a5d641d"><path d="M 110.039062 -7.898438 L 514.039062 29.800781 L 465.488281 550.078125 L 61.492188 512.378906 Z M 110.039062 -7.898438 " clip-rule="nonzero"/></clipPath><clipPath id="4d0591128e"><path d="M 110.039062 -7.898438 L 514.039062 29.800781 L 465.488281 550.078125 L 61.492188 512.378906 Z M 110.039062 -7.898438 " clip-rule="nonzero"/></clipPath><clipPath id="bb1039bc11"><path d="M 110.039062 -7.898438 L 514.039062 29.800781 L 465.488281 550.078125 L 61.492188 512.378906 Z M 110.039062 -7.898438 " clip-rule="nonzero"/></clipPath></defs><g clip-path="url(#d9210e17a0)"><path fill="#ffffff" d="M 0.5 0 L 542.5 0 L 542.5 542 L 0.5 542 Z M 0.5 0 " fill-opacity="1" fill-rule="nonzero"/><path fill="#ffffff" d="M 0.5 0 L 542.5 0 L 542.5 542 L 0.5 542 Z M 0.5 0 " fill-opacity="1" fill-rule="nonzero"/></g><g clip-path="url(#fb5df1c274)"><g clip-path="url(#1cc05fd331)"><g clip-path="url(#e0d5f8f654)"><g clip-path="url(#e57b93542b)"><path fill="#000000" d="M 375.96875 111.316406 C 392.917969 111.886719 382.847656 106.230469 386.710938 103.003906 C 388.59375 101.445312 394.25 104.40625 396.007812 103.421875 C 397.082031 102.820312 388.460938 86.429688 393.449219 79.136719 L 399.285156 94.164062 C 402.460938 86.746094 416.050781 86.589844 416.804688 85.984375 C 417.710938 85.234375 417.863281 68.128906 428.527344 65.492188 L 405.410156 80.253906 L 399.105469 70.011719 C 414.910156 75.589844 407.019531 59.378906 410.125 56.578125 C 411.035156 55.761719 432.898438 52.027344 434.429688 53.953125 C 435.175781 54.902344 432.644531 65.109375 433.378906 70.296875 C 433.597656 71.832031 437.015625 81.601562 438.925781 83.359375 C 457.535156 73.183594 435.421875 73.78125 437.652344 71.171875 C 452.109375 54.226562 473.597656 46.53125 492.28125 35.800781 L 513.953125 29.972656 C 507.53125 31.609375 499.660156 50.226562 495.222656 49.476562 C 493.886719 49.261719 492.597656 45.6875 490.78125 45.835938 C 489.191406 45.957031 478.941406 48 478.472656 48.429688 C 477.484375 49.332031 478.246094 72.363281 468.996094 71.683594 C 466.644531 71.507812 462.75 58.625 457.703125 63.386719 C 459.746094 67.367188 467.828125 70.648438 463.828125 76.050781 C 461.839844 78.75 450.582031 87.738281 447.554688 88.539062 C 443.550781 89.609375 437.332031 87.132812 436.164062 88.0625 C 435.410156 88.667969 430.355469 105.589844 429.265625 106.410156 C 425.65625 109.097656 427.785156 102.957031 416.785156 115.21875 C 410.617188 122.085938 403.414062 121.953125 398.609375 125.363281 C 390.199219 131.367188 385.625 145.601562 381.1875 152.316406 C 378.847656 155.867188 369.210938 162.207031 370.984375 163.996094 C 374.324219 167.375 382.753906 158.464844 385.5625 162.945312 L 345.347656 205.027344 C 299.375 262.679688 225.492188 404.570312 211.339844 475.046875 C 209.914062 482.109375 209.785156 509.820312 208.066406 511.058594 C 207.125 511.738281 203.820312 509.917969 201.511719 510.988281 C 188.90625 516.757812 190.570312 524.3125 174.289062 510.546875 C 163.144531 501.136719 159.148438 485.492188 151.074219 476.777344 C 142.984375 468.035156 135.648438 468.796875 131.972656 452.84375 C 115.757812 382.304688 112.253906 309.886719 102.601562 238.566406 C 101.484375 230.273438 90.390625 202.460938 97.421875 196.464844 C 106.070312 189.082031 119.738281 211.3125 124.527344 216.046875 C 129.546875 221.003906 137.46875 226.953125 142.488281 231.910156 C 145.75 235.148438 159.007812 250.867188 159.460938 253.253906 C 160.613281 259.292969 157.273438 266.539062 157.820312 272.296875 C 159.523438 290.792969 162.519531 317.644531 166.507812 335.792969 C 167.777344 341.550781 167.875 346.996094 175.007812 348.632812 C 176.121094 341.789062 175.273438 334.175781 177.445312 327.585938 C 183.132812 310.140625 227.425781 241.234375 240.523438 222.472656 C 244.613281 216.582031 252.855469 213.335938 255.292969 208.238281 C 261.542969 195.152344 269.359375 189.433594 280.632812 174.941406 C 295.421875 155.929688 310.085938 136.277344 329.082031 121.46875 L 326.847656 145.417969 C 336.078125 142.695312 334.925781 127.949219 335.976562 127.121094 C 336.921875 126.375 347.828125 127.4375 350.859375 121.089844 C 350.441406 115.410156 338.367188 119.109375 336.707031 117.355469 C 333.15625 113.59375 350.835938 96.925781 353.398438 92.179688 C 361.148438 92.972656 378.675781 72.390625 383.832031 78.261719 C 384.386719 78.878906 377.046875 91.792969 374.675781 92.070312 C 372.441406 92.335938 369.5625 90.53125 368.191406 91.441406 C 367.59375 91.835938 366.289062 105.089844 366.808594 105.570312 C 369.25 107.917969 375.890625 101.996094 375.921875 111.335938 C 371.917969 111.210938 362.351562 109.347656 361.546875 109.996094 C 360.519531 110.824219 355.554688 133.121094 366.933594 129.828125 C 374.441406 127.664062 375.9375 118.398438 375.921875 111.335938 Z M 424.148438 86.828125 C 421.039062 86.539062 420.59375 91.324219 423.699219 91.613281 C 426.808594 91.902344 427.253906 87.117188 424.148438 86.828125 Z M 415.609375 100.511719 C 405.640625 98.34375 404.835938 98.988281 405.144531 109.191406 Z M 356.363281 114.316406 C 359.765625 110.933594 356.046875 100.753906 352.46875 104.296875 C 348.890625 107.84375 352.78125 117.863281 356.363281 114.316406 Z M 388.980469 127.015625 C 384.363281 122.363281 363.617188 140.007812 363.472656 141.550781 C 362.789062 148.863281 381.449219 127.484375 388.535156 131.800781 Z M 352.179688 133.257812 L 344.335938 139.765625 L 346.503906 142.382812 L 354.351562 135.871094 Z M 301.746094 181.695312 C 305.148438 178.3125 301.433594 168.132812 297.855469 171.675781 C 294.449219 175.058594 298.167969 185.242188 301.746094 181.695312 Z M 273.171875 203.1875 C 270.066406 202.898438 269.617188 207.683594 272.726562 207.972656 C 275.835938 208.261719 276.28125 203.476562 273.171875 203.1875 Z M 273.171875 203.1875 " fill-opacity="1" fill-rule="nonzero"/></g></g></g></g><g clip-path="url(#2124f0b820)"><g clip-path="url(#470a5d641d)"><g clip-path="url(#4d0591128e)"><g clip-path="url(#bb1039bc11)"><path fill="#000000" d="M 489.988281 54.308594 C 493.097656 54.601562 492.648438 59.386719 489.542969 59.09375 C 486.433594 58.804688 486.882812 54.019531 489.988281 54.308594 Z M 489.988281 54.308594 " fill-opacity="1" fill-rule="nonzero"/></g></g></g></g></svg>